<mxfile host="app.diagrams.net" modified="2021-06-13T11:28:58.016Z" agent="5.0 (Windows NT 10.0; Win64; x64) AppleWebKit/537.36 (KHTML, like Gecko) Chrome/90.0.4430.212 Safari/537.36 OPR/76.0.4017.177" etag="r_ZHpJc3VbMgDWBo_WqF" version="14.7.7" type="github">
  <diagram id="XmYXb6q1sJxBOcwfVzE4" name="Page-1">
    <mxGraphModel dx="1160" dy="610" grid="1" gridSize="10" guides="1" tooltips="1" connect="1" arrows="1" fold="1" page="1" pageScale="1" pageWidth="850" pageHeight="1100" math="0" shadow="0">
      <root>
        <mxCell id="0" />
        <mxCell id="1" parent="0" />
        <mxCell id="Kyf35Kcozfyy5u9kXsoH-23" value="" style="rounded=0;whiteSpace=wrap;html=1;" vertex="1" parent="1">
          <mxGeometry x="730" y="340" width="120" height="440" as="geometry" />
        </mxCell>
        <mxCell id="FBqpnrmvN5RfIPoNUzqK-1" value="&lt;b&gt;&lt;u&gt;ULTRON&lt;br&gt;&lt;br&gt;&amp;nbsp;FLOW DIAGRAM&lt;/u&gt;&lt;/b&gt;" style="text;html=1;strokeColor=none;fillColor=none;align=center;verticalAlign=middle;whiteSpace=wrap;rounded=0;" parent="1" vertex="1">
          <mxGeometry x="580" y="190" width="290" height="20" as="geometry" />
        </mxCell>
        <mxCell id="FBqpnrmvN5RfIPoNUzqK-28" style="edgeStyle=orthogonalEdgeStyle;rounded=0;orthogonalLoop=1;jettySize=auto;html=1;" parent="1" source="FBqpnrmvN5RfIPoNUzqK-2" target="FBqpnrmvN5RfIPoNUzqK-4" edge="1">
          <mxGeometry relative="1" as="geometry" />
        </mxCell>
        <mxCell id="FBqpnrmvN5RfIPoNUzqK-2" value="START" style="rounded=1;whiteSpace=wrap;html=1;fillColor=#f5f5f5;strokeColor=#666666;fontColor=#333333;" parent="1" vertex="1">
          <mxGeometry x="140" y="370" width="70" height="40" as="geometry" />
        </mxCell>
        <mxCell id="Kyf35Kcozfyy5u9kXsoH-3" value="" style="edgeStyle=orthogonalEdgeStyle;rounded=0;orthogonalLoop=1;jettySize=auto;html=1;" edge="1" parent="1" source="FBqpnrmvN5RfIPoNUzqK-4" target="Kyf35Kcozfyy5u9kXsoH-1">
          <mxGeometry relative="1" as="geometry" />
        </mxCell>
        <mxCell id="FBqpnrmvN5RfIPoNUzqK-4" value="Infromat&lt;span style=&quot;color: rgba(0 , 0 , 0 , 0) ; font-family: monospace ; font-size: 0px&quot;&gt;%3CmxGraphModel%3E%3Croot%3E%3CmxCell%20id%3D%220%22%2F%3E%3CmxCell%20id%3D%221%22%20parent%3D%220%22%2F%3E%3CmxCell%20id%3D%222%22%20value%3D%22START%22%20style%3D%22rounded%3D1%3BwhiteSpace%3Dwrap%3Bhtml%3D1%3B%22%20vertex%3D%221%22%20parent%3D%221%22%3E%3CmxGeometry%20x%3D%22140%22%20y%3D%22370%22%20width%3D%2270%22%20height%3D%2240%22%20as%3D%22geometry%22%2F%3E%3C%2FmxCell%3E%3C%2Froot%3E%3C%2FmxGraphModel%3E&lt;/span&gt;ion Extraction&amp;nbsp;&lt;br&gt;from UI of the Chat bot" style="whiteSpace=wrap;html=1;aspect=fixed;fillColor=#dae8fc;strokeColor=#6c8ebf;" parent="1" vertex="1">
          <mxGeometry x="230" y="350" width="80" height="80" as="geometry" />
        </mxCell>
        <mxCell id="Kyf35Kcozfyy5u9kXsoH-13" value="" style="edgeStyle=orthogonalEdgeStyle;rounded=0;orthogonalLoop=1;jettySize=auto;html=1;" edge="1" parent="1" source="FBqpnrmvN5RfIPoNUzqK-5" target="Kyf35Kcozfyy5u9kXsoH-11">
          <mxGeometry relative="1" as="geometry" />
        </mxCell>
        <mxCell id="FBqpnrmvN5RfIPoNUzqK-5" value="Speech to Text Conversion&lt;span style=&quot;color: rgba(0 , 0 , 0 , 0) ; font-family: monospace ; font-size: 0px&quot;&gt;%3CmxGraphModel%3E%3Croot%3E%3CmxCell%20id%3D%220%22%2F%3E%3CmxCell%20id%3D%221%22%20parent%3D%220%22%2F%3E%3CmxCell%20id%3D%222%22%20value%3D%22START%22%20style%3D%22rounded%3D1%3BwhiteSpace%3Dwrap%3Bhtml%3D1%3B%22%20vertex%3D%221%22%20parent%3D%221%22%3E%3CmxGeometry%20x%3D%22140%22%20y%3D%22370%22%20width%3D%2270%22%20height%3D%2240%22%20as%3D%22geometry%22%2F%3E%3C%2FmxCell%3E%3C%2Froot%3E%3C%2FmxGraphModel%3E&lt;/span&gt;" style="whiteSpace=wrap;html=1;aspect=fixed;fillColor=#dae8fc;strokeColor=#6c8ebf;" parent="1" vertex="1">
          <mxGeometry x="460" y="260" width="60" height="60" as="geometry" />
        </mxCell>
        <mxCell id="FBqpnrmvN5RfIPoNUzqK-31" value="" style="edgeStyle=orthogonalEdgeStyle;rounded=0;orthogonalLoop=1;jettySize=auto;html=1;" parent="1" source="FBqpnrmvN5RfIPoNUzqK-6" target="FBqpnrmvN5RfIPoNUzqK-7" edge="1">
          <mxGeometry relative="1" as="geometry" />
        </mxCell>
        <mxCell id="Kyf35Kcozfyy5u9kXsoH-65" value="" style="edgeStyle=orthogonalEdgeStyle;rounded=0;orthogonalLoop=1;jettySize=auto;html=1;" edge="1" parent="1" source="FBqpnrmvN5RfIPoNUzqK-6" target="FBqpnrmvN5RfIPoNUzqK-33">
          <mxGeometry relative="1" as="geometry" />
        </mxCell>
        <mxCell id="FBqpnrmvN5RfIPoNUzqK-6" value="Preprocessing&lt;span style=&quot;color: rgba(0 , 0 , 0 , 0) ; font-family: monospace ; font-size: 0px&quot;&gt;%3CmxGraphModel%3E%3Croot%3E%3CmxCell%20id%3D%220%22%2F%3E%3CmxCell%20id%3D%221%22%20parent%3D%220%22%2F%3E%3CmxCell%20id%3D%222%22%20value%3D%22Speech%20to%20Text%20Conversion%26lt%3Bspan%20style%3D%26quot%3Bcolor%3A%20rgba(0%20%2C%200%20%2C%200%20%2C%200)%20%3B%20font-family%3A%20monospace%20%3B%20font-size%3A%200px%26quot%3B%26gt%3B%253CmxGraphModel%253E%253Croot%253E%253CmxCell%2520id%253D%25220%2522%252F%253E%253CmxCell%2520id%253D%25221%2522%2520parent%253D%25220%2522%252F%253E%253CmxCell%2520id%253D%25222%2522%2520value%253D%2522START%2522%2520style%253D%2522rounded%253D1%253BwhiteSpace%253Dwrap%253Bhtml%253D1%253B%2522%2520vertex%253D%25221%2522%2520parent%253D%25221%2522%253E%253CmxGeometry%2520x%253D%2522140%2522%2520y%253D%2522370%2522%2520width%253D%252270%2522%2520height%253D%252240%2522%2520as%253D%2522geometry%2522%252F%253E%253C%252FmxCell%253E%253C%252Froot%253E%253C%252FmxGraphModel%253E%26lt%3B%2Fspan%26gt%3B%22%20style%3D%22whiteSpace%3Dwrap%3Bhtml%3D1%3Baspect%3Dfixed%3B%22%20vertex%3D%221%22%20parent%3D%221%22%3E%3CmxGeometry%20x%3D%22360%22%20y%3D%22350%22%20width%3D%2280%22%20height%3D%2280%22%20as%3D%22geometry%22%2F%3E%3C%2FmxCell%3E%3C%2Froot%3E%3C%2FmxGraphModel%3E&lt;/span&gt;" style="whiteSpace=wrap;html=1;aspect=fixed;fillColor=#dae8fc;strokeColor=#6c8ebf;" parent="1" vertex="1">
          <mxGeometry x="630" y="350" width="80" height="80" as="geometry" />
        </mxCell>
        <mxCell id="Kyf35Kcozfyy5u9kXsoH-42" value="" style="edgeStyle=orthogonalEdgeStyle;rounded=0;orthogonalLoop=1;jettySize=auto;html=1;" edge="1" parent="1" source="FBqpnrmvN5RfIPoNUzqK-7" target="Kyf35Kcozfyy5u9kXsoH-38">
          <mxGeometry relative="1" as="geometry" />
        </mxCell>
        <mxCell id="FBqpnrmvN5RfIPoNUzqK-7" value="Intent Classification&lt;br&gt;" style="whiteSpace=wrap;html=1;aspect=fixed;fillColor=#f8cecc;strokeColor=#b85450;" parent="1" vertex="1">
          <mxGeometry x="750" y="350" width="80" height="80" as="geometry" />
        </mxCell>
        <mxCell id="FBqpnrmvN5RfIPoNUzqK-40" style="edgeStyle=orthogonalEdgeStyle;rounded=0;orthogonalLoop=1;jettySize=auto;html=1;entryX=1;entryY=0.5;entryDx=0;entryDy=0;entryPerimeter=0;" parent="1" source="FBqpnrmvN5RfIPoNUzqK-13" target="FBqpnrmvN5RfIPoNUzqK-33" edge="1">
          <mxGeometry relative="1" as="geometry" />
        </mxCell>
        <mxCell id="Kyf35Kcozfyy5u9kXsoH-45" style="edgeStyle=orthogonalEdgeStyle;rounded=0;orthogonalLoop=1;jettySize=auto;html=1;" edge="1" parent="1" source="FBqpnrmvN5RfIPoNUzqK-13" target="Kyf35Kcozfyy5u9kXsoH-40">
          <mxGeometry relative="1" as="geometry">
            <Array as="points">
              <mxPoint x="880" y="530" />
              <mxPoint x="880" y="540" />
            </Array>
          </mxGeometry>
        </mxCell>
        <mxCell id="FBqpnrmvN5RfIPoNUzqK-13" value="NER&amp;nbsp;&lt;br&gt;Recognition" style="whiteSpace=wrap;html=1;aspect=fixed;fillColor=#f8cecc;strokeColor=#b85450;" parent="1" vertex="1">
          <mxGeometry x="750" y="470" width="80" height="80" as="geometry" />
        </mxCell>
        <mxCell id="FBqpnrmvN5RfIPoNUzqK-33" value="Storage" style="shape=cylinder3;whiteSpace=wrap;html=1;boundedLbl=1;backgroundOutline=1;size=15;fillColor=#fff2cc;strokeColor=#d6b656;" parent="1" vertex="1">
          <mxGeometry x="610" y="480" width="60" height="67" as="geometry" />
        </mxCell>
        <mxCell id="Kyf35Kcozfyy5u9kXsoH-5" value="" style="edgeStyle=orthogonalEdgeStyle;rounded=0;orthogonalLoop=1;jettySize=auto;html=1;" edge="1" parent="1" source="Kyf35Kcozfyy5u9kXsoH-1" target="Kyf35Kcozfyy5u9kXsoH-4">
          <mxGeometry relative="1" as="geometry" />
        </mxCell>
        <mxCell id="Kyf35Kcozfyy5u9kXsoH-9" value="" style="edgeStyle=orthogonalEdgeStyle;rounded=0;orthogonalLoop=1;jettySize=auto;html=1;" edge="1" parent="1" source="Kyf35Kcozfyy5u9kXsoH-1" target="Kyf35Kcozfyy5u9kXsoH-8">
          <mxGeometry relative="1" as="geometry" />
        </mxCell>
        <mxCell id="Kyf35Kcozfyy5u9kXsoH-12" value="" style="edgeStyle=orthogonalEdgeStyle;rounded=0;orthogonalLoop=1;jettySize=auto;html=1;" edge="1" parent="1" source="Kyf35Kcozfyy5u9kXsoH-1" target="Kyf35Kcozfyy5u9kXsoH-11">
          <mxGeometry relative="1" as="geometry" />
        </mxCell>
        <mxCell id="Kyf35Kcozfyy5u9kXsoH-1" value="Input Type" style="rhombus;whiteSpace=wrap;html=1;fillColor=#d5e8d4;strokeColor=#82b366;" vertex="1" parent="1">
          <mxGeometry x="345" y="350" width="80" height="80" as="geometry" />
        </mxCell>
        <mxCell id="Kyf35Kcozfyy5u9kXsoH-7" value="" style="edgeStyle=orthogonalEdgeStyle;rounded=0;orthogonalLoop=1;jettySize=auto;html=1;" edge="1" parent="1" source="Kyf35Kcozfyy5u9kXsoH-4" target="Kyf35Kcozfyy5u9kXsoH-6">
          <mxGeometry relative="1" as="geometry" />
        </mxCell>
        <mxCell id="Kyf35Kcozfyy5u9kXsoH-4" value="VIDEO (OCR" style="whiteSpace=wrap;html=1;strokeColor=#82b366;fillColor=#d5e8d4;" vertex="1" parent="1">
          <mxGeometry x="332.5" y="460" width="105" height="20" as="geometry" />
        </mxCell>
        <mxCell id="Kyf35Kcozfyy5u9kXsoH-14" value="" style="edgeStyle=orthogonalEdgeStyle;rounded=0;orthogonalLoop=1;jettySize=auto;html=1;" edge="1" parent="1" source="Kyf35Kcozfyy5u9kXsoH-6" target="Kyf35Kcozfyy5u9kXsoH-11">
          <mxGeometry relative="1" as="geometry" />
        </mxCell>
        <mxCell id="Kyf35Kcozfyy5u9kXsoH-6" value="AWS Textract" style="whiteSpace=wrap;html=1;strokeColor=#b85450;fillColor=#f8cecc;" vertex="1" parent="1">
          <mxGeometry x="460" y="445" width="57.5" height="50" as="geometry" />
        </mxCell>
        <mxCell id="Kyf35Kcozfyy5u9kXsoH-10" value="" style="edgeStyle=orthogonalEdgeStyle;rounded=0;orthogonalLoop=1;jettySize=auto;html=1;" edge="1" parent="1" source="Kyf35Kcozfyy5u9kXsoH-8" target="FBqpnrmvN5RfIPoNUzqK-5">
          <mxGeometry relative="1" as="geometry" />
        </mxCell>
        <mxCell id="Kyf35Kcozfyy5u9kXsoH-8" value="AUDIO" style="whiteSpace=wrap;html=1;strokeColor=#82b366;fillColor=#d5e8d4;" vertex="1" parent="1">
          <mxGeometry x="332.5" y="280" width="105" height="20" as="geometry" />
        </mxCell>
        <mxCell id="Kyf35Kcozfyy5u9kXsoH-15" value="" style="edgeStyle=orthogonalEdgeStyle;rounded=0;orthogonalLoop=1;jettySize=auto;html=1;" edge="1" parent="1" source="Kyf35Kcozfyy5u9kXsoH-11" target="FBqpnrmvN5RfIPoNUzqK-6">
          <mxGeometry relative="1" as="geometry" />
        </mxCell>
        <mxCell id="Kyf35Kcozfyy5u9kXsoH-11" value="Text" style="whiteSpace=wrap;html=1;strokeColor=#6c8ebf;fillColor=#dae8fc;" vertex="1" parent="1">
          <mxGeometry x="485" y="360" width="120" height="60" as="geometry" />
        </mxCell>
        <mxCell id="Kyf35Kcozfyy5u9kXsoH-60" value="" style="edgeStyle=orthogonalEdgeStyle;rounded=0;orthogonalLoop=1;jettySize=auto;html=1;" edge="1" parent="1" source="Kyf35Kcozfyy5u9kXsoH-20" target="Kyf35Kcozfyy5u9kXsoH-47">
          <mxGeometry relative="1" as="geometry" />
        </mxCell>
        <mxCell id="Kyf35Kcozfyy5u9kXsoH-20" value="Text Summarization&lt;br&gt;" style="whiteSpace=wrap;html=1;aspect=fixed;fillColor=#f8cecc;strokeColor=#b85450;" vertex="1" parent="1">
          <mxGeometry x="750" y="580" width="80" height="80" as="geometry" />
        </mxCell>
        <mxCell id="Kyf35Kcozfyy5u9kXsoH-28" value="" style="edgeStyle=orthogonalEdgeStyle;rounded=0;orthogonalLoop=1;jettySize=auto;html=1;" edge="1" parent="1" source="Kyf35Kcozfyy5u9kXsoH-27" target="FBqpnrmvN5RfIPoNUzqK-2">
          <mxGeometry relative="1" as="geometry" />
        </mxCell>
        <mxCell id="Kyf35Kcozfyy5u9kXsoH-27" value="Actor" style="shape=umlActor;verticalLabelPosition=bottom;verticalAlign=top;html=1;outlineConnect=0;" vertex="1" parent="1">
          <mxGeometry x="80" y="360" width="30" height="60" as="geometry" />
        </mxCell>
        <mxCell id="Kyf35Kcozfyy5u9kXsoH-31" value="Actor" style="shape=umlActor;verticalLabelPosition=bottom;verticalAlign=top;html=1;outlineConnect=0;" vertex="1" parent="1">
          <mxGeometry x="1170" y="360" width="30" height="60" as="geometry" />
        </mxCell>
        <mxCell id="Kyf35Kcozfyy5u9kXsoH-32" value="Actor" style="shape=umlActor;verticalLabelPosition=bottom;verticalAlign=top;html=1;outlineConnect=0;" vertex="1" parent="1">
          <mxGeometry x="775" y="820" width="30" height="60" as="geometry" />
        </mxCell>
        <mxCell id="Kyf35Kcozfyy5u9kXsoH-43" value="" style="edgeStyle=orthogonalEdgeStyle;rounded=0;orthogonalLoop=1;jettySize=auto;html=1;" edge="1" parent="1" source="Kyf35Kcozfyy5u9kXsoH-38">
          <mxGeometry relative="1" as="geometry">
            <mxPoint x="1050" y="390" as="targetPoint" />
          </mxGeometry>
        </mxCell>
        <mxCell id="Kyf35Kcozfyy5u9kXsoH-44" style="edgeStyle=orthogonalEdgeStyle;rounded=0;orthogonalLoop=1;jettySize=auto;html=1;" edge="1" parent="1" source="Kyf35Kcozfyy5u9kXsoH-38" target="FBqpnrmvN5RfIPoNUzqK-13">
          <mxGeometry relative="1" as="geometry">
            <Array as="points">
              <mxPoint x="920" y="514" />
            </Array>
          </mxGeometry>
        </mxCell>
        <mxCell id="Kyf35Kcozfyy5u9kXsoH-38" value="Intent Based Action" style="rhombus;whiteSpace=wrap;html=1;fillColor=#d5e8d4;strokeColor=#82b366;" vertex="1" parent="1">
          <mxGeometry x="890" y="360" width="60" height="60" as="geometry" />
        </mxCell>
        <mxCell id="Kyf35Kcozfyy5u9kXsoH-48" style="edgeStyle=orthogonalEdgeStyle;rounded=0;orthogonalLoop=1;jettySize=auto;html=1;entryX=1;entryY=0.5;entryDx=0;entryDy=0;" edge="1" parent="1" source="Kyf35Kcozfyy5u9kXsoH-40" target="Kyf35Kcozfyy5u9kXsoH-20">
          <mxGeometry relative="1" as="geometry">
            <mxPoint x="900" y="640" as="targetPoint" />
          </mxGeometry>
        </mxCell>
        <mxCell id="Kyf35Kcozfyy5u9kXsoH-56" value="" style="edgeStyle=orthogonalEdgeStyle;rounded=0;orthogonalLoop=1;jettySize=auto;html=1;entryX=0.5;entryY=1;entryDx=0;entryDy=0;" edge="1" parent="1" source="Kyf35Kcozfyy5u9kXsoH-40" target="Kyf35Kcozfyy5u9kXsoH-53">
          <mxGeometry relative="1" as="geometry">
            <mxPoint x="1050" y="550" as="targetPoint" />
          </mxGeometry>
        </mxCell>
        <mxCell id="Kyf35Kcozfyy5u9kXsoH-58" style="edgeStyle=orthogonalEdgeStyle;rounded=0;orthogonalLoop=1;jettySize=auto;html=1;entryX=1;entryY=0.5;entryDx=0;entryDy=0;" edge="1" parent="1" source="Kyf35Kcozfyy5u9kXsoH-40" target="Kyf35Kcozfyy5u9kXsoH-47">
          <mxGeometry relative="1" as="geometry">
            <Array as="points">
              <mxPoint x="960" y="650" />
              <mxPoint x="880" y="650" />
              <mxPoint x="880" y="720" />
            </Array>
          </mxGeometry>
        </mxCell>
        <mxCell id="Kyf35Kcozfyy5u9kXsoH-40" value="NER Based Action" style="rhombus;whiteSpace=wrap;html=1;fillColor=#d5e8d4;strokeColor=#82b366;" vertex="1" parent="1">
          <mxGeometry x="930" y="520" width="60" height="60" as="geometry" />
        </mxCell>
        <mxCell id="Kyf35Kcozfyy5u9kXsoH-61" value="" style="edgeStyle=orthogonalEdgeStyle;rounded=0;orthogonalLoop=1;jettySize=auto;html=1;" edge="1" parent="1" source="Kyf35Kcozfyy5u9kXsoH-47" target="Kyf35Kcozfyy5u9kXsoH-32">
          <mxGeometry relative="1" as="geometry" />
        </mxCell>
        <mxCell id="Kyf35Kcozfyy5u9kXsoH-47" value="Backen API" style="whiteSpace=wrap;html=1;aspect=fixed;fillColor=#f8cecc;strokeColor=#b85450;" vertex="1" parent="1">
          <mxGeometry x="750" y="680" width="80" height="80" as="geometry" />
        </mxCell>
        <mxCell id="Kyf35Kcozfyy5u9kXsoH-54" value="" style="edgeStyle=orthogonalEdgeStyle;rounded=0;orthogonalLoop=1;jettySize=auto;html=1;" edge="1" parent="1" source="Kyf35Kcozfyy5u9kXsoH-53" target="Kyf35Kcozfyy5u9kXsoH-31">
          <mxGeometry relative="1" as="geometry" />
        </mxCell>
        <mxCell id="Kyf35Kcozfyy5u9kXsoH-53" value="Text&lt;br&gt;Generation" style="whiteSpace=wrap;html=1;aspect=fixed;fillColor=#f8cecc;strokeColor=#b85450;" vertex="1" parent="1">
          <mxGeometry x="1050" y="350" width="80" height="80" as="geometry" />
        </mxCell>
      </root>
    </mxGraphModel>
  </diagram>
</mxfile>
